<?xml version="1.0" standalone="no"?>
<!DOCTYPE svg PUBLIC "-//W3C//DTD SVG 20010904//EN"
 "http://www.w3.org/TR/2001/REC-SVG-20010904/DTD/svg10.dtd">
<svg version="1.0" xmlns="http://www.w3.org/2000/svg"
 width="1579.000000pt" height="535.000000pt" viewBox="0 0 1579.000000 535.000000"
 preserveAspectRatio="xMidYMid meet">
<metadata>
Created by potrace 1.16, written by Peter Selinger 2001-2019
</metadata>
<g transform="translate(0.000000,535.000000) scale(0.100000,-0.100000)"
fill="#000000" stroke="none">
<path d="M0 2675 l0 -2675 7895 0 7895 0 0 2675 0 2675 -7895 0 -7895 0 0
-2675z m2229 640 c46 -8 85 -16 86 -17 6 -9 34 -252 29 -259 -3 -5 -15 -9 -27
-9 -18 0 -26 10 -39 48 -52 144 -148 198 -342 190 -83 -3 -111 -9 -158 -30
-109 -51 -188 -151 -223 -283 -19 -76 -20 -259 0 -343 47 -197 178 -327 358
-353 74 -10 173 3 226 31 46 24 111 91 149 155 23 40 34 49 52 47 13 -1 25 -4
28 -6 4 -5 -42 -141 -70 -208 -19 -45 -22 -48 -75 -58 -231 -48 -408 -37 -560
36 -176 84 -287 252 -300 455 -18 272 126 493 381 586 121 44 303 51 485 18z
m3872 4 l57 -11 12 -109 c14 -117 11 -139 -18 -139 -14 0 -25 16 -42 61 -36
101 -114 159 -212 159 -174 0 -239 -218 -103 -343 20 -18 81 -58 136 -88 228
-123 293 -200 292 -344 -1 -60 -6 -86 -27 -130 -62 -125 -205 -194 -381 -182
-77 5 -209 39 -219 56 -3 4 -15 61 -26 126 -18 97 -19 119 -8 126 20 13 48 11
48 -3 0 -27 50 -118 86 -158 54 -60 105 -83 184 -84 117 -1 190 63 198 175 9
122 -35 178 -226 287 -135 76 -202 135 -238 207 -23 48 -26 64 -22 127 2 44
11 89 23 113 39 79 128 144 229 165 49 11 179 5 257 -11z m2791 10 c48 -6 109
-16 135 -22 l47 -12 12 -105 c7 -58 13 -116 15 -130 3 -20 -1 -25 -21 -28 -22
-2 -29 7 -62 77 -31 65 -46 84 -84 109 -61 41 -131 55 -245 50 -79 -3 -105 -9
-159 -34 -80 -38 -141 -97 -180 -178 -110 -224 -57 -569 109 -707 84 -70 215
-105 329 -89 113 16 174 58 243 168 23 37 43 69 45 70 1 2 12 1 24 -3 27 -9
25 -25 -26 -163 l-38 -101 -45 -10 c-174 -37 -360 -39 -471 -5 -200 59 -346
211 -391 404 -17 76 -15 213 5 289 79 304 373 467 758 420z m-1299 -290 c31
-7 57 -17 57 -23 0 -6 5 -49 11 -95 8 -67 7 -86 -3 -92 -20 -13 -22 -12 -41
36 -44 105 -100 139 -232 140 -111 0 -176 -25 -235 -92 -152 -173 -99 -535 91
-633 78 -41 205 -43 277 -6 33 17 77 65 111 119 25 41 23 39 45 31 13 -5 10
-18 -16 -92 -16 -48 -34 -92 -39 -99 -16 -19 -169 -36 -275 -31 -111 6 -160
22 -244 78 -165 110 -219 357 -121 549 52 101 192 198 321 220 63 11 208 6
293 -10z m4863 -10 c109 -41 208 -146 241 -258 34 -113 15 -277 -44 -378 -31
-54 -123 -138 -168 -154 -19 -7 -35 -15 -35 -19 0 -10 164 -111 237 -146 54
-26 71 -39 66 -50 -5 -14 -18 -15 -81 -9 -41 4 -93 13 -115 21 -42 15 -157 82
-227 133 -30 21 -55 31 -80 31 -20 0 -62 9 -93 19 -161 56 -264 192 -274 364
-9 144 31 261 123 353 115 115 293 152 450 93z m-9738 -6 c-2 -9 -18 -21 -36
-25 -18 -5 -35 -15 -38 -23 -4 -8 34 -89 82 -180 78 -146 90 -163 102 -148 33
46 161 314 156 328 -4 8 -24 18 -45 21 -29 5 -39 11 -39 25 0 18 10 19 140 19
130 0 140 -1 140 -19 0 -14 -10 -20 -38 -25 -60 -9 -95 -55 -228 -296 l-69
-125 0 -138 c0 -132 1 -140 23 -157 12 -10 40 -21 62 -25 30 -5 40 -11 40 -26
0 -18 -9 -19 -180 -19 -173 0 -180 1 -180 20 0 15 9 21 42 26 73 12 78 25 78
180 l0 136 -101 182 c-55 99 -112 193 -126 208 -14 15 -42 30 -62 35 -21 5
-37 16 -39 26 -3 15 11 17 158 17 146 0 161 -2 158 -17z m1023 -9 c111 -51
142 -184 67 -280 -12 -14 -44 -37 -71 -49 l-49 -23 56 -16 c227 -66 202 -336
-39 -412 -36 -12 -107 -18 -252 -21 -201 -5 -203 -5 -203 15 0 16 8 23 38 28
75 13 72 -2 72 368 0 182 -4 336 -8 342 -11 18 -48 34 -76 34 -20 0 -26 5 -26
21 0 20 3 21 223 17 201 -3 226 -5 268 -24z m844 -26 c10 -83 3 -142 -17 -146
-10 -2 -18 2 -18 10 0 7 -11 36 -24 65 -30 65 -61 76 -196 71 l-95 -3 -3 -157
-3 -158 105 0 c101 0 105 1 125 26 12 15 21 37 21 50 0 19 5 24 25 24 l25 0 0
-131 c0 -129 0 -130 -22 -127 -17 2 -25 13 -31 41 -5 21 -18 42 -29 48 -11 6
-65 13 -119 16 l-99 6 0 -154 c0 -207 -6 -199 154 -199 144 0 157 6 208 96 20
36 36 54 49 54 24 0 24 -2 -7 -115 l-27 -95 -306 2 c-273 3 -306 5 -309 19 -2
13 8 18 41 23 87 13 82 -10 82 371 l0 337 -24 19 c-13 10 -36 19 -52 19 -22 0
-29 5 -29 20 0 20 7 20 284 20 l285 0 6 -52z m650 29 c85 -38 125 -99 125
-190 0 -87 -43 -151 -144 -212 -14 -9 -4 -28 74 -145 98 -146 147 -202 191
-221 30 -12 33 -17 21 -35 -11 -17 -128 2 -168 27 -42 25 -74 66 -158 202 -37
59 -76 112 -86 117 -10 6 -42 10 -71 10 l-52 0 6 -136 c6 -153 13 -168 78
-179 30 -5 39 -11 39 -26 0 -19 -8 -19 -167 -17 -147 3 -168 5 -171 20 -2 12
7 18 38 23 73 12 70 -2 70 369 0 255 -3 336 -13 350 -7 9 -32 20 -55 23 -33 4
-42 10 -42 25 0 19 7 20 223 16 186 -3 229 -6 262 -21z m4360 3 c0 -9 -14 -17
-39 -21 -76 -12 -76 -10 -76 -368 0 -270 2 -320 16 -339 14 -20 23 -22 124
-22 108 0 110 0 145 32 20 17 47 53 61 80 17 34 30 48 45 48 24 0 23 -7 -15
-139 l-22 -76 -294 0 c-268 0 -295 2 -298 17 -2 13 7 18 42 23 86 13 81 -9 84
364 l3 331 -25 25 c-16 16 -36 25 -55 25 -16 0 -33 5 -36 10 -16 26 12 30 173
28 140 -3 167 -5 167 -18z m715 1 c0 -14 -10 -20 -39 -25 -71 -11 -71 -10 -71
-369 0 -200 4 -326 10 -338 6 -11 30 -24 55 -30 34 -9 45 -16 45 -30 0 -19 -8
-19 -167 -17 -147 3 -168 5 -171 20 -2 12 7 18 37 23 80 13 76 -6 79 357 2
369 3 367 -68 384 -28 7 -46 17 -48 27 -3 15 13 17 167 17 160 0 171 -1 171
-19z m561 -294 l264 -313 3 246 c2 135 0 260 -3 277 -7 37 -27 51 -88 61 -28
5 -43 13 -45 25 -3 16 11 17 157 17 151 0 161 -1 161 -19 0 -14 -10 -20 -37
-25 -21 -3 -44 -10 -52 -15 -24 -16 -30 -97 -30 -444 l-1 -338 -24 3 c-18 2
-89 82 -281 318 -141 173 -263 322 -272 330 -13 13 -15 -14 -11 -256 4 -311 6
-316 83 -335 33 -8 45 -16 45 -30 0 -18 -10 -19 -150 -19 -139 0 -150 1 -150
18 0 13 12 22 40 31 73 22 73 24 74 366 l1 304 -30 30 c-18 20 -43 34 -67 37
-28 5 -38 11 -38 25 0 17 9 19 94 19 l94 0 263 -313z m889 294 c0 -14 -10 -20
-41 -24 -77 -10 -74 3 -74 -373 0 -377 -4 -356 76 -369 30 -5 39 -11 37 -23
-3 -15 -24 -17 -171 -20 -162 -2 -167 -2 -167 18 0 15 9 21 40 26 71 11 70 8
70 374 0 179 -4 330 -8 336 -11 18 -48 34 -76 34 -19 0 -26 5 -26 20 0 19 7
20 170 20 159 0 170 -1 170 -19z m1410 -1 c0 -16 -7 -20 -35 -20 -22 0 -43 -8
-56 -21 -20 -20 -20 -29 -17 -282 3 -247 4 -264 25 -303 44 -82 116 -124 214
-124 96 0 160 39 198 119 26 56 26 57 26 308 0 243 -1 253 -21 273 -12 12 -40
24 -63 27 -31 4 -41 10 -41 24 0 18 10 19 150 19 140 0 150 -1 150 -19 0 -14
-10 -20 -39 -25 -65 -10 -65 -11 -72 -295 -7 -280 -14 -323 -68 -397 -17 -22
-54 -53 -83 -69 -45 -25 -67 -30 -144 -33 -130 -6 -193 14 -260 81 -78 78 -85
108 -91 424 -6 289 -4 282 -71 292 -24 4 -38 12 -40 24 -3 16 11 17 167 17
164 0 171 -1 171 -20z m1185 -69 c4 -49 4 -94 0 -100 -9 -15 -35 -14 -35 2 0
7 -12 36 -26 65 -32 64 -60 74 -194 70 l-95 -3 -3 -157 -3 -158 99 0 c112 0
138 11 148 65 4 25 11 35 25 35 18 0 19 -9 19 -130 0 -123 -1 -130 -20 -130
-13 0 -20 7 -20 20 0 28 -20 68 -39 75 -9 4 -60 9 -113 12 l-98 6 0 -154 c0
-207 -7 -199 155 -199 117 0 125 1 153 25 16 13 42 49 57 78 22 41 33 53 47
49 10 -2 18 -7 18 -11 0 -12 -48 -179 -54 -190 -5 -8 -100 -11 -312 -11 -294
0 -304 1 -304 19 0 16 9 21 45 27 54 8 72 23 80 67 4 18 5 169 3 335 l-3 304
-24 19 c-13 10 -36 19 -52 19 -22 0 -29 5 -29 20 0 20 7 20 284 20 l284 0 7
-89z"/>
<path d="M12202 2997 c-18 -5 -53 -28 -78 -50 -184 -162 -138 -564 78 -673 55
-28 76 -29 125 -9 27 11 39 12 49 4 20 -16 54 -4 100 35 165 141 138 545 -44
660 -70 44 -157 57 -230 33z"/>
<path d="M3480 2971 c-5 -11 -10 -81 -10 -155 l0 -136 73 0 c124 0 187 52 187
155 0 99 -64 155 -177 155 -51 0 -64 -3 -73 -19z"/>
<path d="M3470 2488 c0 -165 8 -201 51 -218 66 -28 184 8 226 68 26 39 37 115
24 161 -26 88 -83 122 -213 129 l-88 4 0 -144z"/>
<path d="M4983 2978 c-4 -7 -10 -91 -11 -185 l-4 -173 69 0 c135 0 203 63 203
191 0 75 -21 117 -79 156 -27 18 -48 23 -102 23 -43 0 -71 -5 -76 -12z"/>
</g>
</svg>
