<?xml version="1.0" standalone="no"?>
<!DOCTYPE svg PUBLIC "-//W3C//DTD SVG 20010904//EN"
 "http://www.w3.org/TR/2001/REC-SVG-20010904/DTD/svg10.dtd">
<svg version="1.0" xmlns="http://www.w3.org/2000/svg"
 width="256.000000pt" height="256.000000pt" viewBox="0 0 256.000000 256.000000"
 preserveAspectRatio="xMidYMid meet">
<metadata>
Created by potrace 1.16, written by Peter Selinger 2001-2019
</metadata>
<g transform="translate(0.000000,256.000000) scale(0.100000,-0.100000)"
fill="#000000" stroke="none">
<path d="M1280 2551 c35 -7 80 -28 80 -37 0 -2 -14 3 -31 12 -31 15 -62 15
-104 -1 l-20 -8 20 17 c20 17 20 17 -2 6 -13 -6 -22 -14 -21 -18 0 -4 -7 -23
-16 -42 -17 -34 -17 -34 -11 -5 4 20 3 25 -4 16 -15 -24 -7 -110 14 -129 17
-16 17 -16 1 8 -9 13 -16 31 -16 40 0 8 8 -1 18 -20 l18 -35 -28 -30 -28 -30
-57 57 c-45 45 -55 60 -45 70 21 21 14 26 -38 26 -52 0 -59 -5 -38 -26 10 -10
0 -25 -45 -70 l-57 -57 -57 57 c-45 45 -55 60 -45 70 16 16 15 28 -2 28 -8 0
-17 6 -19 13 -3 6 -6 -6 -7 -28 l-3 -40 -7 40 c-4 22 -11 49 -15 60 l-8 20 17
-20 c17 -20 17 -20 6 2 -5 12 -15 25 -22 29 -7 5 -8 3 -3 -6 8 -13 7 -13 -37
9 -56 28 -128 -10 -145 -77 -8 -32 20 -89 52 -104 23 -10 36 -48 17 -48 -4 0
-34 26 -65 58 -49 50 -56 61 -44 71 12 9 16 9 20 -1 4 -9 6 -7 6 4 1 9 4 25 7
35 6 17 6 17 -8 -1 -11 -14 -27 -19 -62 -19 -48 1 -55 -4 -34 -25 10 -10 0
-25 -45 -69 l-57 -58 -63 63 -63 63 -25 -28 c-13 -15 -17 -22 -8 -16 13 10 25
2 74 -47 l59 -60 -59 -60 -59 -60 -23 22 c-22 21 -23 21 -23 2 0 -11 5 -25 12
-32 9 -9 9 -15 0 -24 -7 -7 -12 -21 -12 -32 0 -19 1 -19 23 2 l23 22 52 -53
c29 -29 52 -59 52 -67 0 -8 -23 -38 -52 -67 l-52 -53 -23 22 -23 21 0 -24 c0
-14 5 -30 11 -36 8 -8 8 -13 0 -17 -13 -8 -15 -46 -2 -46 5 0 14 7 21 16 12
13 21 8 72 -43 l58 -57 -57 -58 -57 -58 -23 22 -23 21 0 -24 c0 -14 5 -30 11
-36 8 -8 8 -13 0 -17 -6 -4 -11 -19 -11 -33 l0 -26 23 21 23 22 58 -59 57 -58
-34 -30 c-33 -29 -34 -30 -16 -52 16 -19 26 -22 81 -18 l63 3 -62 2 c-35 1
-63 6 -63 10 0 5 13 20 28 35 l28 27 37 -38 c20 -21 37 -41 37 -45 0 -4 -30
-7 -66 -7 -62 0 -67 2 -98 35 -27 29 -41 35 -73 35 -26 0 -50 -8 -69 -22 -25
-20 -27 -20 -14 -3 14 20 14 20 -8 1 -23 -20 -30 -32 -11 -20 8 4 9 -1 3 -17
-9 -28 -10 -100 -2 -97 10 5 48 -34 43 -42 -3 -5 5 -6 17 -3 15 3 19 2 11 -4
-7 -5 3 -8 27 -8 24 0 34 3 27 8 -8 6 -4 7 10 4 14 -3 27 2 35 12 12 15 11 15
-7 1 -11 -9 -7 0 10 22 29 37 31 38 95 37 l65 -1 60 -71 c33 -39 61 -74 63
-78 2 -4 -19 -22 -45 -39 l-48 -32 35 32 c29 26 30 28 7 14 l-28 -17 -45 44
-45 44 35 32 c32 30 33 33 17 47 -26 23 -129 22 -147 -1 -11 -16 -9 -22 17
-48 l29 -31 -58 -57 c-51 -51 -60 -56 -72 -43 -7 9 -16 16 -21 16 -13 0 -11
-34 2 -47 8 -8 8 -13 0 -17 -6 -4 -11 -19 -11 -33 l0 -26 23 21 23 22 59 -60
59 -60 -59 -60 -59 -60 -23 22 c-22 21 -23 21 -23 2 0 -11 5 -25 12 -32 9 -9
9 -15 0 -24 -7 -7 -12 -21 -12 -32 0 -19 1 -19 23 2 l23 22 64 -67 c36 -37 61
-65 57 -61 -4 3 -33 -21 -64 -53 l-56 -59 -24 22 -23 21 0 -24 c0 -14 5 -30
11 -36 8 -8 8 -13 0 -17 -13 -8 -15 -46 -2 -46 5 0 14 7 21 16 12 13 21 8 72
-43 l58 -57 -57 -58 c-54 -54 -58 -57 -75 -41 -10 9 -21 13 -25 10 -3 -4 15
-28 41 -53 25 -26 49 -44 53 -40 4 3 -1 14 -10 23 -16 16 -14 21 40 75 l57 58
58 -57 58 -57 -22 -23 -21 -23 26 0 c14 0 29 5 32 11 5 7 13 5 24 -5 10 -9 21
-13 24 -10 4 4 13 2 20 -5 12 -9 13 -7 9 14 -2 14 -7 23 -10 21 -3 -3 -11 -1
-19 6 -12 9 -4 22 44 70 31 32 61 58 65 58 18 0 0 -40 -30 -65 -61 -51 -48
-141 25 -171 68 -29 131 10 144 89 6 42 7 42 8 7 0 -20 -7 -47 -16 -60 -15
-23 -16 -24 0 -12 9 8 19 22 22 33 4 11 15 19 27 19 l21 0 -21 23 -22 23 60
59 60 59 60 -59 60 -59 -21 -22 c-15 -16 -17 -23 -7 -27 7 -2 21 2 31 11 15
13 19 13 35 0 9 -8 25 -13 35 -10 17 4 17 6 -4 28 l-23 25 57 57 58 57 29 -32
c15 -17 32 -28 37 -25 4 4 0 -2 -9 -13 -10 -12 -24 -40 -33 -64 -18 -51 -19
-62 -4 -41 9 12 10 11 6 -8 -3 -12 -2 -20 2 -17 9 5 58 -43 53 -53 -2 -4 2 -8
10 -10 10 -3 10 -2 1 5 -8 6 5 9 37 9 32 0 45 -3 37 -9 -9 -7 -9 -8 1 -5 8 2
13 8 13 13 0 13 40 55 48 51 3 -2 7 8 7 22 1 15 4 36 8 47 4 12 1 28 -9 40
-16 19 -16 19 -5 -3 6 -13 10 -27 8 -31 -2 -5 -10 7 -19 25 -9 18 -13 31 -9
29 4 -2 22 11 40 31 l34 34 58 -57 58 -57 -21 -22 -20 -21 20 -6 c11 -3 26 1
32 9 10 13 14 13 28 0 9 -8 24 -11 34 -7 17 6 17 8 -3 26 l-21 19 58 58 57 58
52 -51 c29 -28 56 -49 61 -46 4 3 6 -14 5 -37 -3 -34 1 -49 23 -74 71 -84 191
-23 181 92 -3 34 -38 86 -58 86 -5 0 6 -14 24 -31 l33 -31 -37 29 c-38 28 -38
28 -18 48 20 19 20 19 80 -40 l60 -59 -21 -22 c-15 -16 -17 -23 -7 -27 7 -2
21 2 31 11 15 14 19 14 35 0 9 -9 23 -13 30 -11 10 4 8 11 -7 27 l-21 22 60
59 60 59 58 -57 c32 -31 63 -57 70 -57 25 0 10 26 -45 82 l-57 58 54 55 c38
39 60 53 72 49 15 -5 18 1 18 37 0 33 -3 39 -13 31 -10 -9 -27 2 -72 48 l-59
60 54 55 c35 36 60 53 71 50 12 -4 16 3 17 36 2 34 -1 40 -16 35 -12 -4 -34
10 -72 49 l-54 55 54 55 c38 39 60 53 72 49 15 -4 18 1 18 36 0 35 -3 40 -18
36 -12 -4 -34 10 -72 49 -53 54 -53 55 -35 75 11 12 25 18 34 15 9 -4 6 4 -8
19 l-23 25 -24 -27 -23 -27 -33 33 -33 34 53 -4 c28 -2 52 0 52 5 0 4 -30 8
-67 9 l-68 2 63 3 c60 4 63 3 96 -32 18 -19 40 -35 47 -35 10 0 11 -2 2 -8 -6
-4 6 -7 27 -7 23 0 34 3 27 8 -7 5 -2 7 13 5 14 -2 25 2 25 9 0 14 13 28 28
28 12 0 14 68 3 104 -6 18 -5 22 4 16 9 -5 11 -4 6 4 -4 6 -11 9 -16 6 -4 -3
-13 2 -20 10 -7 8 -9 15 -4 15 5 0 0 7 -10 15 -11 8 -27 15 -35 15 -9 -1 -2
-7 14 -14 29 -12 28 -13 -23 -8 -50 4 -54 3 -87 -32 -34 -36 -35 -37 -102 -33
l-68 3 71 2 c58 2 73 5 79 19 5 15 4 16 -6 6 -7 -7 -36 -13 -63 -13 l-51 0 37
37 38 37 29 -28 c20 -19 31 -24 36 -16 4 7 21 18 39 26 17 7 25 13 18 14 -7 0
-22 -5 -34 -11 -16 -9 -24 -6 -44 12 l-24 23 57 58 c41 41 63 56 75 52 15 -5
18 1 18 37 0 33 -3 39 -13 31 -10 -9 -27 2 -72 48 l-59 60 54 55 c38 39 60 53
72 49 15 -4 18 1 18 36 0 35 -3 40 -18 36 -12 -4 -34 10 -72 49 l-54 55 54 55
c30 30 61 54 70 52 11 -1 16 9 18 36 3 34 1 38 -15 33 -14 -4 -34 9 -73 49
l-54 55 57 58 c45 45 55 60 45 70 -10 10 -25 0 -70 -45 l-58 -58 -57 58 c-45
44 -55 59 -45 69 21 21 14 26 -38 26 -52 0 -59 -5 -38 -26 10 -10 0 -24 -44
-68 -64 -65 -101 -67 -43 -3 19 21 35 45 35 52 0 6 -6 3 -12 -8 -19 -34 -51
-65 -67 -65 -10 1 -5 7 11 16 29 15 58 61 58 91 0 10 -9 33 -20 51 -11 17 -17
32 -15 32 3 0 14 -15 25 -32 11 -18 20 -26 20 -17 0 8 -14 28 -32 45 -17 16
-27 23 -23 15 6 -11 4 -13 -11 -7 -58 24 -94 18 -130 -21 -16 -17 -24 -38 -24
-62 0 -31 -8 -45 -55 -91 l-55 -54 -60 59 c-39 39 -56 63 -50 69 19 19 10 24
-35 24 -45 0 -54 -5 -35 -24 6 -6 -11 -30 -50 -69 l-60 -60 -34 35 c-32 34
-33 36 -19 65 10 21 13 24 9 7 -2 -12 -1 -20 4 -17 9 6 8 91 -2 100 -4 4 -4
-4 -2 -17 4 -18 2 -16 -9 7 -8 17 -12 33 -10 37 7 13 -61 48 -92 47 -29 -1
-29 -1 5 -8z m-773 -338 l-57 -58 -60 60 -60 59 57 58 58 58 60 -60 60 -60
-58 -57z m281 0 l-57 -57 -26 24 c-24 22 -26 31 -24 95 1 55 6 75 22 93 l21
23 60 -61 61 -60 -57 -57z m878 28 c-36 -38 -16 -54 23 -17 l27 26 59 -60 59
-60 -59 -60 -59 -60 -21 20 c-16 15 -24 17 -32 9 -9 -9 -6 -16 10 -30 l22 -18
-60 -60 -59 -61 -28 27 c-32 31 -36 67 -10 97 17 21 17 21 -5 2 -20 -17 -23
-29 -23 -97 0 -52 4 -79 13 -82 7 -3 5 -6 -5 -6 -16 -1 -18 9 -18 82 0 101 15
123 81 118 34 -2 45 3 74 32 27 27 35 43 35 72 0 72 -88 128 -149 95 -14 -7
-25 -2 -52 26 l-33 34 59 60 60 60 59 -60 60 -59 -28 -30z m213 18 c1 -57 -2
-90 -10 -94 -6 -4 -35 17 -70 51 l-60 59 51 48 c29 29 47 53 43 60 -4 7 5 1
19 -12 23 -22 26 -32 27 -112z m-809 66 l54 -55 -37 -38 c-29 -30 -34 -41 -25
-50 9 -9 20 -4 50 25 l38 37 40 -39 c56 -54 56 -96 0 -150 l-40 -39 -33 32
c-18 18 -35 30 -38 28 -2 -3 -3 13 -1 35 4 34 -1 44 -32 75 -31 31 -41 36 -75
32 -22 -2 -38 -1 -35 1 2 3 -6 15 -18 28 l-22 23 54 55 c30 30 57 55 60 55 3
0 30 -25 60 -55z m1130 0 l55 -55 -58 -58 -57 -57 -57 57 -58 58 55 55 c30 30
57 55 60 55 3 0 30 -25 60 -55z m-1528 -82 l-3 -96 97 -98 c54 -54 101 -96
104 -94 4 2 31 -21 61 -51 l54 -55 -41 -37 c-22 -20 -49 -43 -60 -50 -17 -11
-16 -11 4 -1 13 6 26 9 28 7 2 -3 -11 -12 -30 -20 l-34 -17 -1 112 -2 112 -94
95 -95 95 0 98 c0 53 3 97 8 97 4 0 6 -43 4 -97z m-280 -143 l-32 -30 27 0
c14 0 35 8 45 17 18 16 22 14 76 -40 l57 -57 -37 -36 -38 -35 0 41 c0 31 -6
47 -27 68 -15 15 -27 30 -26 33 5 16 -100 -10 -124 -32 -16 -13 -25 -20 -22
-16 4 4 -19 32 -50 62 l-56 54 60 61 60 60 60 -60 60 -61 -33 -29z m1114 88
c4 4 -1 -5 -11 -21 -13 -20 -16 -39 -12 -71 5 -37 3 -46 -18 -66 l-24 -22 -55
52 c-31 29 -56 60 -56 69 0 8 24 39 53 69 l52 53 32 -35 c17 -19 35 -31 39
-28z m-906 -10 c0 -53 4 -66 28 -92 15 -17 23 -28 18 -24 -4 4 -19 -5 -32 -20
l-23 -27 -58 57 -58 58 55 55 c30 30 58 55 62 55 4 0 8 -28 8 -62z m293 42 c8
-11 18 -17 22 -12 5 4 -3 -8 -18 -26 -39 -49 -37 -94 8 -139 32 -32 40 -35 75
-30 31 4 42 1 60 -18 18 -20 20 -32 17 -101 l-3 -79 -2 81 c-2 70 -5 83 -24
100 -23 19 -23 19 -5 -2 21 -26 22 -87 1 -105 -13 -11 -23 -4 -71 44 -46 45
-54 58 -45 70 17 20 -8 43 -26 25 -10 -10 -25 0 -69 45 l-58 57 55 55 c30 30
58 55 62 55 4 0 13 -9 21 -20z m1167 -35 l55 -55 -58 -57 -57 -57 -35 34 c-31
30 -33 35 -20 50 8 9 15 36 15 60 0 39 20 80 39 80 4 0 31 -25 61 -55z m280 0
l54 -55 -54 -55 c-54 -55 -78 -63 -103 -35 -10 12 -9 12 8 0 11 -8 -2 9 -30
38 l-49 52 54 55 c30 30 57 55 60 55 3 0 30 -25 60 -55z m-395 -225 c-16 -16
-34 -30 -41 -30 -6 0 -22 -9 -35 -21 l-24 -20 27 16 c15 9 33 15 40 12 9 -4 8
-6 -3 -6 -9 -1 -29 -11 -45 -23 -15 -13 -26 -18 -23 -13 6 11 -47 66 -55 57
-4 -3 -5 -60 -4 -126 1 -67 3 -104 5 -83 2 21 11 41 19 44 8 3 14 13 14 22 1
9 7 2 15 -16 7 -17 25 -39 39 -48 23 -15 26 -24 26 -71 l0 -54 -50 36 c-45 33
-68 56 -37 38 7 -4 8 -3 4 2 -5 5 -16 9 -25 9 -15 0 -17 15 -20 119 l-3 120
68 68 68 68 34 -35 35 -35 -29 -30z m-1157 -155 c-3 -105 -5 -120 -20 -120 -9
0 -20 -4 -25 -9 -4 -5 -3 -6 5 -2 30 18 7 -5 -38 -38 l-50 -36 0 52 c0 46 4
55 32 78 23 19 33 38 38 71 l7 44 2 -38 c1 -32 -5 -45 -34 -74 -28 -28 -35
-43 -35 -75 0 -21 4 -37 8 -34 5 3 7 19 4 36 -3 24 3 38 32 70 20 22 36 48 36
57 0 39 19 -5 23 -52 2 -27 4 4 5 70 l2 121 -57 54 -58 55 54 -57 c47 -49 53
-59 41 -73 -25 -30 -47 -36 -61 -17 -13 16 -12 16 6 3 11 -8 -5 11 -35 43
l-55 57 27 24 c15 12 24 27 20 31 -4 5 24 -20 61 -56 l68 -65 -3 -120z m1549
-13 l-56 -56 -31 29 c-26 25 -31 36 -28 69 2 22 10 42 17 44 8 3 11 0 7 -7
-11 -17 0 -13 15 6 12 14 12 16 0 9 -9 -6 -12 -4 -9 5 3 8 11 14 19 14 7 0 15
9 16 20 l3 20 -9 -20 c-11 -23 -14 -11 -5 21 5 19 12 15 62 -38 l56 -59 -57
-57z m-2027 91 c0 -2 -6 -1 -12 3 -9 5 -9 3 1 -9 7 -9 17 -15 21 -12 5 3 15 2
24 -1 12 -5 16 -18 14 -53 l-1 -46 -4 40 c-6 56 -19 64 -14 9 2 -33 -2 -50
-15 -65 -17 -19 -19 -19 -76 38 l-58 57 37 38 c27 27 40 35 49 27 9 -8 11 -5
7 13 -4 19 -2 18 11 -6 9 -15 16 -30 16 -33z m128 -283 c4 0 6 49 4 110 -2 60
1 110 5 110 5 0 24 -16 43 -35 18 -19 38 -31 43 -28 6 4 7 1 3 -6 -5 -7 -1
-20 8 -30 14 -16 12 -21 -39 -71 -45 -45 -52 -56 -42 -69 8 -10 4 -9 -15 3
l-28 18 2 132 2 131 3 -132 c2 -73 7 -133 11 -133z m-97 6 l2 -41 7 40 7 40 2
-40 c2 -38 6 -43 75 -90 l74 -50 -60 -65 c-33 -36 -57 -60 -54 -54 3 6 -10 26
-29 44 l-35 34 46 47 45 46 -27 17 c-14 10 -23 13 -19 6 4 -7 -8 -27 -31 -51
l-38 -39 -58 57 -58 57 57 58 c53 54 58 57 75 41 11 -10 19 -32 19 -57z m2002
16 l57 -58 -60 -59 -61 -60 -49 51 c-27 28 -53 49 -57 45 -4 -3 0 3 10 15 9
11 18 31 18 45 1 21 2 21 9 -6 l8 -30 1 29 c1 26 43 86 61 86 3 0 31 -26 63
-58z m-185 -88 c-3 -3 19 -28 49 -57 l55 -51 -45 -43 c-25 -23 -44 -44 -43
-46 0 -2 -26 26 -60 62 l-61 65 51 38 c46 34 68 47 54 32z m-810 -55 c18 -6
29 -15 26 -21 -3 -5 2 -8 12 -6 24 4 25 -21 2 -48 -18 -20 -18 -21 4 -40 12
-10 18 -14 15 -8 -7 13 16 37 38 40 9 1 11 -4 8 -14 -4 -9 -2 -13 4 -9 16 10
33 -39 33 -93 0 -61 -9 -87 -22 -68 -7 9 -8 6 -5 -10 3 -13 3 -21 0 -18 -4 3
-12 1 -19 -5 -10 -8 -16 -5 -26 10 -11 19 -14 19 -30 4 -17 -15 -17 -17 3 -31
l20 -14 -20 -22 c-12 -13 -18 -25 -15 -29 3 -3 -5 -3 -18 0 -16 3 -19 2 -10
-5 20 -14 -9 -22 -71 -20 l-52 1 55 7 55 7 -56 1 c-45 2 -60 7 -79 27 -18 19
-21 28 -12 37 18 18 -5 43 -25 27 -11 -10 -20 -6 -43 16 -26 25 -30 36 -30 85
0 51 3 59 34 89 29 29 35 31 43 17 8 -15 11 -15 27 2 16 18 16 20 0 26 -15 6
-15 9 6 31 17 18 19 25 9 26 -8 0 -6 4 6 9 29 12 97 12 133 -1z m830 -255 c-3
-3 13 -23 36 -44 l41 -39 -45 -45 c-24 -25 -50 -46 -58 -46 -8 0 -10 -5 -6
-12 4 -6 -14 3 -39 22 -26 18 -47 35 -47 37 0 7 113 133 118 133 3 0 3 -3 0
-6z m-1797 -215 c-11 -9 -21 -32 -24 -55 l-4 -39 -1 41 c-1 29 3 46 16 55 15
13 15 13 -3 3 -15 -8 -21 -24 -23 -57 -5 -77 -24 -80 -93 -11 l-59 58 57 58
57 58 49 -48 c47 -46 47 -47 28 -63z m1959 46 l55 -55 -57 -57 -57 -57 -31 29
c-19 18 -30 39 -30 56 0 14 -7 32 -15 39 -14 12 -11 19 27 57 23 23 45 43 48
43 3 0 30 -25 60 -55z m-1825 -145 l49 -50 -54 -55 c-30 -30 -58 -55 -62 -55
-4 0 -8 47 -8 105 0 79 3 105 13 105 7 0 35 -23 62 -50z m275 -160 l0 -115
-97 -95 c-54 -52 -87 -83 -73 -67 33 37 20 34 -16 -5 -16 -17 -23 -28 -16 -24
9 5 12 -8 12 -53 0 -33 -4 -62 -8 -65 -5 -3 -34 21 -65 52 l-57 58 60 59 60
59 28 -27 c22 -21 31 -24 40 -15 9 9 6 18 -15 40 l-27 28 32 33 c18 18 30 36
26 39 -6 6 33 31 51 33 14 2 45 -26 45 -39 0 -6 -24 -35 -52 -66 l-53 -55 58
55 57 54 0 116 0 115 -38 23 -37 23 33 -28 c25 -22 32 -36 32 -65 0 -37 -14
-59 -23 -36 -3 7 -6 -5 -6 -26 -1 -49 -7 -44 -14 12 -4 30 -2 40 6 35 7 -3 8
-2 4 3 -5 5 -12 9 -16 9 -3 0 -19 10 -34 21 -23 19 -27 29 -27 73 l0 51 65
-48 65 -47 0 -115z m1083 87 c-15 -12 -31 -22 -34 -22 -4 0 -11 -4 -16 -9 -5
-5 -3 -6 5 -2 14 8 14 0 2 -29 -7 -15 -9 -16 -9 -4 -1 9 -8 22 -16 29 -24 20
-17 53 17 83 l33 28 -37 -23 -38 -23 0 -117 c0 -64 3 -118 8 -120 10 -5 61 50
53 58 -3 3 10 -3 29 -15 50 -30 95 -27 130 8 42 41 48 77 22 126 -20 36 -20
38 -2 15 11 -14 37 -42 58 -62 l37 -38 -57 -57 c-54 -54 -58 -56 -76 -40 -10
9 -34 17 -53 16 -27 0 -30 -2 -14 -8 11 -5 29 -19 40 -31 l20 -22 -36 -33
c-32 -29 -35 -35 -22 -48 13 -13 19 -10 49 22 l33 36 58 -57 58 -58 -60 -60
c-55 -56 -60 -59 -77 -43 -13 11 -18 31 -18 65 0 30 4 47 10 43 18 -11 11 1
-12 21 -22 19 -23 19 -8 -1 7 -11 -30 23 -83 75 l-97 95 0 115 0 115 63 46 62
45 3 -49 c3 -43 0 -51 -25 -70z m-1531 -81 l1 -51 7 50 7 50 1 -52 c1 -29 0
-53 -2 -53 -2 0 -12 -3 -22 -7 -13 -5 -15 -3 -10 8 4 8 -8 -3 -27 -23 l-34
-37 -38 39 -39 40 59 60 c55 56 60 59 77 43 12 -11 18 -32 20 -67z m594 26
c-2 -2 -18 4 -36 13 -18 9 -34 15 -36 12 -2 -2 14 -12 35 -22 22 -10 50 -28
63 -42 l22 -24 -56 -56 c-33 -33 -60 -53 -67 -48 -8 4 -11 41 -10 110 l1 104
44 -22 c24 -11 42 -23 40 -25z m766 -58 l-3 -106 100 -102 101 -102 0 -95 c0
-93 0 -94 -29 -110 l-29 -17 -51 52 -51 52 60 59 c38 38 63 56 69 50 6 -6 12
-48 14 -95 l3 -85 2 95 2 96 -46 44 c-25 25 -91 94 -147 154 l-102 109 49 43
c26 24 40 42 30 38 -11 -3 -8 1 6 10 14 8 25 15 25 16 0 0 -1 -48 -3 -106z
m638 51 l54 -54 -56 -58 -55 -58 -20 42 c-23 51 -20 56 7 11 11 -18 20 -27 20
-21 0 7 -14 27 -31 45 -17 18 -27 27 -23 19 5 -11 3 -13 -10 -8 -10 4 -20 7
-22 7 -2 0 -3 17 -3 38 l2 37 7 -35 7 -35 2 34 c1 31 41 91 61 91 3 0 30 -25
60 -55z m-812 -32 c-15 -4 -18 -17 -18 -83 0 -62 3 -80 18 -91 14 -11 15 -11
5 1 -23 25 -15 74 15 103 l28 27 59 -60 59 -60 -23 -24 c-19 -20 -28 -23 -43
-15 -11 6 -34 9 -53 8 -58 -5 -75 20 -75 111 0 80 3 91 29 89 13 -1 13 -2 -1
-6z m-487 -177 c-16 -15 -31 -20 -61 -17 -35 2 -45 -2 -75 -32 -45 -45 -47
-90 -8 -139 15 -18 23 -30 18 -25 -4 4 -17 -1 -27 -10 -18 -16 -21 -14 -76 40
l-57 57 55 55 c50 51 79 65 72 35 -1 -7 12 -3 33 10 24 15 47 21 70 18 19 -2
31 0 28 5 -3 5 -27 7 -54 4 -30 -4 -51 -2 -55 5 -4 5 18 35 49 66 48 48 58 54
71 43 19 -16 21 -91 4 -111 -11 -12 -10 -12 5 -1 13 11 17 31 19 95 l2 81 3
-79 c3 -69 1 -82 -16 -100z m-562 105 c12 -16 21 -34 21 -41 0 -6 4 -9 9 -6 4
3 19 -6 32 -20 l23 -24 -59 -60 c-53 -54 -61 -58 -75 -45 -9 8 -27 15 -41 15
-13 0 -39 9 -57 20 -19 12 -30 16 -27 9 4 -6 27 -20 50 -30 75 -33 76 -42 9
-110 l-58 -59 -59 57 -58 58 53 51 c30 29 52 57 50 63 -2 7 7 1 21 -13 45 -45
107 -46 150 -3 12 12 24 21 27 20 3 -1 3 21 2 47 -3 34 -11 57 -27 75 -13 14
-20 25 -15 25 5 0 18 -13 29 -29z m283 -164 l-92 -92 2 -95 c2 -87 2 -89 5
-24 3 61 8 75 29 95 l25 23 56 -57 57 -56 -60 -63 -61 -63 -18 25 -19 25 25
-20 24 -20 -18 21 c-11 14 -25 20 -38 17 -18 -5 -19 1 -19 93 l0 99 92 92 c51
51 95 93 98 93 2 0 -37 -42 -88 -93z m721 -43 c-7 -52 11 -85 58 -110 84 -43
183 54 139 135 -7 14 -4 24 16 42 l25 23 57 -57 57 -57 -60 -60 -59 -60 -27
26 c-21 20 -28 22 -37 11 -9 -11 -6 -19 13 -37 l25 -24 -57 -58 -57 -58 -58
57 -58 57 27 28 c14 15 31 24 37 21 6 -4 2 3 -8 16 l-20 21 -31 -30 -31 -30
-52 53 c-29 29 -52 59 -52 67 0 8 23 38 52 67 l52 53 28 -27 c24 -23 27 -31
21 -69z m-291 49 c31 -31 38 -44 38 -77 0 -33 -7 -47 -37 -78 l-37 -38 -38 37
c-30 29 -40 34 -52 24 -12 -10 -8 -18 25 -49 l40 -37 -58 -58 -59 -57 -58 59
c-51 52 -57 62 -46 76 9 11 22 14 46 9 18 -3 41 -1 51 5 15 9 12 10 -14 5 -17
-3 -39 -1 -50 5 -14 8 -11 9 17 5 67 -10 127 52 117 118 -2 16 -2 26 1 24 2
-3 17 11 34 30 17 19 33 34 36 34 3 0 23 -17 44 -37z m1151 -135 l-58 -58 -59
60 -60 59 27 29 c15 16 24 32 20 36 -4 4 0 4 8 1 9 -3 22 2 30 12 13 17 13 17
-6 3 -19 -14 -19 -14 -6 2 7 10 17 16 21 13 5 -3 12 0 16 6 4 7 29 -11 65 -47
l59 -58 -57 -58z m-1833 -23 l54 -55 -59 -60 -59 -60 -58 57 -58 57 57 58 c32
32 60 58 63 58 3 0 30 -25 60 -55z m1693 -3 l57 -58 -60 -59 -60 -59 -60 59
-60 59 57 58 c32 32 60 58 63 58 3 0 31 -26 63 -58z"/>
<path d="M1210 1388 c-19 -12 -39 -22 -44 -23 -14 0 -19 -121 -6 -147 11 -22
10 -22 -4 -4 -9 11 -16 15 -16 9 0 -6 7 -16 15 -23 8 -7 15 -9 15 -5 0 5 9 0
20 -10 10 -9 18 -22 17 -27 -1 -6 5 -13 13 -15 11 -3 12 -2 2 5 -8 5 7 7 41 4
31 -2 65 1 78 7 23 12 23 11 5 -3 -11 -9 -15 -16 -9 -16 11 0 31 20 32 33 0
12 38 57 43 52 14 -14 -11 107 -27 131 -11 16 -20 32 -20 36 0 3 -4 10 -9 15
-6 5 -6 2 -1 -6 6 -11 4 -13 -11 -6 -43 19 -98 16 -134 -7z"/>
</g>
</svg>
